<svg width="21" height="20" viewBox="0 0 21 20" fill="none" xmlns="http://www.w3.org/2000/svg">
<path d="M19.3 10.208C19.3 9.55801 19.2417 8.93301 19.1333 8.33301H10.5V11.883H15.4333C15.2167 13.0247 14.5667 13.9913 13.5917 14.6413V16.9497H16.5667C18.3 15.3497 19.3 12.9997 19.3 10.208Z" fill="#4285F4"/>
<path d="M10.4997 19.1667C12.9747 19.1667 15.0497 18.35 16.5664 16.95L13.5914 14.6417C12.7747 15.1917 11.7331 15.525 10.4997 15.525C8.11641 15.525 6.09141 13.9167 5.36641 11.75H2.31641V14.1167C3.82474 17.1083 6.91641 19.1667 10.4997 19.1667Z" fill="#34A853"/>
<path d="M5.36732 11.7416C5.18398 11.1916 5.07565 10.6083 5.07565 9.99993C5.07565 9.3916 5.18398 8.80827 5.36732 8.25827V5.8916H2.31732C1.69232 7.12493 1.33398 8.5166 1.33398 9.99993C1.33398 11.4833 1.69232 12.8749 2.31732 14.1083L4.69232 12.2583L5.36732 11.7416Z" fill="#FBBC05"/>
<path d="M10.4997 4.48301C11.8497 4.48301 13.0497 4.94967 14.0081 5.84967L16.6331 3.22467C15.0414 1.74134 12.9747 0.833008 10.4997 0.833008C6.91641 0.833008 3.82474 2.89134 2.31641 5.89134L5.36641 8.25801C6.09141 6.09134 8.11641 4.48301 10.4997 4.48301Z" fill="#EA4335"/>
</svg>
