<svg width="21" height="20" viewBox="0 0 21 20" fill="none" xmlns="http://www.w3.org/2000/svg">
<g clip-path="url(#clip0_2398_889)">
<path d="M10.5 1.80184C13.1701 1.80184 13.4864 1.812 14.5408 1.86011C15.5158 1.90461 16.0453 2.06752 16.3977 2.20443C16.8644 2.38583 17.1976 2.60257 17.5475 2.95248C17.8974 3.30239 18.1142 3.63555 18.2955 4.10229C18.4325 4.4547 18.5954 4.98419 18.6399 5.95914C18.688 7.01364 18.6982 7.32989 18.6982 10C18.6982 12.6701 18.688 12.9864 18.6399 14.0409C18.5954 15.0158 18.4325 15.5453 18.2955 15.8978C18.1142 16.3645 17.8974 16.6976 17.5475 17.0476C17.1976 17.3975 16.8644 17.6142 16.3977 17.7956C16.0453 17.9325 15.5158 18.0954 14.5408 18.1399C13.4865 18.188 13.1703 18.1982 10.5 18.1982C7.82969 18.1982 7.51344 18.188 6.45914 18.1399C5.48415 18.0954 4.95466 17.9325 4.60229 17.7956C4.13551 17.6142 3.80235 17.3975 3.45244 17.0476C3.10253 16.6976 2.88579 16.3645 2.70443 15.8978C2.56748 15.5453 2.40457 15.0158 2.36007 14.0409C2.31196 12.9864 2.3018 12.6701 2.3018 10C2.3018 7.32989 2.31196 7.01364 2.36007 5.95918C2.40457 4.98419 2.56748 4.4547 2.70443 4.10229C2.88579 3.63555 3.10253 3.30239 3.45244 2.95248C3.80235 2.60257 4.13551 2.38583 4.60229 2.20443C4.95466 2.06752 5.48415 1.90461 6.4591 1.86011C7.5136 1.812 7.82985 1.80184 10.5 1.80184ZM10.5 0C7.78412 0 7.44362 0.0115116 6.37701 0.0601777C5.31259 0.108764 4.58569 0.277786 3.94958 0.525007C3.29199 0.780564 2.73432 1.1225 2.17839 1.67843C1.62246 2.23436 1.28052 2.79203 1.02497 3.44962C0.777746 4.08573 0.608725 4.81263 0.560138 5.87705C0.511472 6.94362 0.5 7.28416 0.5 10C0.5 12.7159 0.511472 13.0564 0.560138 14.123C0.608725 15.1874 0.777746 15.9143 1.02497 16.5504C1.28052 17.208 1.62246 17.7657 2.17839 18.3216C2.73432 18.8775 3.29199 19.2195 3.94958 19.475C4.58569 19.7223 5.31259 19.8913 6.37701 19.9399C7.44362 19.9885 7.78412 20 10.5 20C13.2158 20 13.5564 19.9885 14.6229 19.9399C15.6874 19.8913 16.4143 19.7223 17.0504 19.475C17.708 19.2195 18.2656 18.8775 18.8216 18.3216C19.3775 17.7657 19.7194 17.208 19.975 16.5504C20.2222 15.9143 20.3912 15.1874 20.4398 14.123C20.4885 13.0564 20.5 12.7159 20.5 10C20.5 7.28416 20.4885 6.94362 20.4398 5.87705C20.3912 4.81263 20.2222 4.08573 19.975 3.44962C19.7194 2.79203 19.3775 2.23436 18.8216 1.67843C18.2656 1.1225 17.708 0.780564 17.0504 0.525007C16.4143 0.277786 15.6874 0.108764 14.6229 0.0601777C13.5564 0.0115116 13.2158 0 10.5 0ZM10.5 4.86487C7.66393 4.86487 5.36483 7.16397 5.36483 10C5.36483 12.8361 7.66393 15.1352 10.5 15.1352C13.336 15.1352 15.6351 12.8361 15.6351 10C15.6351 7.16397 13.336 4.86487 10.5 4.86487ZM10.5 13.3334C8.65904 13.3334 7.16663 11.841 7.16663 10C7.16663 8.15908 8.65904 6.66667 10.5 6.66667C12.3409 6.66667 13.8333 8.15908 13.8333 10C13.8333 11.841 12.3409 13.3334 10.5 13.3334ZM17.038 4.66199C17.038 5.32474 16.5008 5.86201 15.838 5.86201C15.1753 5.86201 14.638 5.32474 14.638 4.66199C14.638 3.99924 15.1753 3.462 15.838 3.462C16.5008 3.462 17.038 3.99924 17.038 4.66199Z" fill="#0A0A08"/>
</g>
<defs>
<clipPath id="clip0_2398_889">
<rect width="20" height="20" fill="white" transform="translate(0.5)"/>
</clipPath>
</defs>
</svg>
