<svg width="21" height="20" viewBox="0 0 21 20" fill="none" xmlns="http://www.w3.org/2000/svg">
<g clip-path="url(#clip0_2398_1048)">
<path fill-rule="evenodd" clip-rule="evenodd" d="M2.72222 20H18.2778C19.5051 20 20.5 19.0051 20.5 17.7778V2.22222C20.5 0.994923 19.5051 0 18.2778 0H2.72222C1.49492 0 0.5 0.994923 0.5 2.22222V17.7778C0.5 19.0051 1.49492 20 2.72222 20Z" fill="#007EBB"/>
<path fill-rule="evenodd" clip-rule="evenodd" d="M17.7218 17.2218H14.7539V12.1668C14.7539 10.7809 14.2273 10.0064 13.1303 10.0064C11.937 10.0064 11.3135 10.8124 11.3135 12.1668V17.2218H8.45327V7.59216H11.3135V8.88927C11.3135 8.88927 12.1735 7.29796 14.2169 7.29796C16.2595 7.29796 17.7218 8.54525 17.7218 11.1249V17.2218ZM5.04105 6.33124C4.0668 6.33124 3.27734 5.53558 3.27734 4.55429C3.27734 3.573 4.0668 2.77734 5.04105 2.77734C6.0153 2.77734 6.80429 3.573 6.80429 4.55429C6.80429 5.53558 6.0153 6.33124 5.04105 6.33124ZM3.56416 17.2218H6.54662V7.59216H3.56416V17.2218Z" fill="white"/>
</g>
<defs>
<clipPath id="clip0_2398_1048">
<rect width="20" height="20" fill="white" transform="translate(0.5)"/>
</clipPath>
</defs>
</svg>
